<?xml version="1.0" standalone="no"?><!DOCTYPE svg PUBLIC "-//W3C//DTD SVG 1.1//EN" "http://www.w3.org/Graphics/SVG/1.1/DTD/svg11.dtd"><svg t="1743484557797" class="icon" viewBox="0 0 1024 1024" version="1.1" xmlns="http://www.w3.org/2000/svg" p-id="2720" xmlns:xlink="http://www.w3.org/1999/xlink" width="200" height="200"><path d="M512 948.71c-58.94 0-116.14-11.55-170-34.33-52.01-22-98.71-53.48-138.8-93.58-40.1-40.1-71.58-86.8-93.58-138.8-22.78-53.86-34.33-111.06-34.33-170s11.55-116.13 34.33-170c22-52.01 53.48-98.71 93.58-138.8 40.1-40.1 86.79-71.58 138.8-93.58 53.86-22.78 111.06-34.33 170-34.33s116.13 11.55 170 34.33c52.01 22 98.71 53.48 138.8 93.58 40.1 40.1 71.58 86.79 93.58 138.8 22.78 53.86 34.33 111.06 34.33 170s-11.55 116.14-34.33 170c-22 52.01-53.48 98.71-93.58 138.8-40.09 40.09-86.79 71.58-138.8 93.58-53.86 22.78-111.06 34.33-170 34.33z m0-800.36c-200.52 0-363.65 163.13-363.65 363.65S311.48 875.65 512 875.65 875.65 712.52 875.65 512 712.52 148.35 512 148.35z" fill="#474747" p-id="2721"></path><path d="M512 649.67c-75.91 0-137.67-61.76-137.67-137.67S436.09 374.33 512 374.33 649.67 436.09 649.67 512 587.91 649.67 512 649.67z m0-202.27c-35.62 0-64.61 28.98-64.61 64.6s28.98 64.61 64.61 64.61 64.6-28.98 64.6-64.61-28.98-64.6-64.6-64.6z" fill="#4F95FC" p-id="2722"></path><path d="M518.33 211.31c-1.2 0-2.39 0.06-3.57 0.18v-0.82c-81.96 0-159.01 31.92-216.96 89.87-57.95 57.95-89.87 135.01-89.87 216.96h0.38c-0.05 0.81-0.09 1.63-0.09 2.46 0 20.18 16.36 36.53 36.53 36.53s36.53-16.36 36.53-36.53c0-1.47-0.1-2.93-0.27-4.35 1.02-127.03 103.85-230.23 230.74-231.84 2.13 0.39 4.33 0.6 6.58 0.6 20.18 0 36.53-16.36 36.53-36.53s-16.35-36.53-36.53-36.53zM505.67 812.69c1.2 0 2.39-0.06 3.57-0.18v0.82c81.96 0 159.01-31.92 216.96-89.87 57.95-57.95 89.87-135.01 89.87-216.96h-0.38c0.05-0.81 0.09-1.63 0.09-2.46 0-20.18-16.36-36.53-36.53-36.53s-36.53 16.36-36.53 36.53c0 1.47 0.1 2.93 0.27 4.35-1.02 127.03-103.85 230.23-230.74 231.84-2.13-0.39-4.33-0.6-6.58-0.6-20.18 0-36.53 16.36-36.53 36.53 0 20.18 16.35 36.53 36.53 36.53z" fill="#474747" p-id="2723"></path></svg>